<svg xmlns="http://www.w3.org/2000/svg" viewBox="0 0 48 48">
  <defs>
    <linearGradient id="lg" x1="0" y1="0" x2="1" y2="1">
      <stop offset="0%" stop-color="hsl(275,100%,82%)"/>
      <stop offset="50%" stop-color="hsl(265,85%,58%)"/>
      <stop offset="100%" stop-color="hsl(250,90%,60%)"/>
    </linearGradient>
  </defs>
  <rect width="48" height="48" rx="10" fill="#0a0014"/>
  <g fill="none" stroke="url(#lg)" stroke-width="1.8" stroke-linejoin="round">
    <path d="M12 12 L22 8 L32 12 L22 16 Z"/>
    <path d="M12 12 L12 20 L22 24 L22 16 Z"/>
    <path d="M32 12 L32 20 L22 24 L22 16 Z"/>
    <path d="M14 22 L34 20 L34 28 L14 30 Z"/>
    <path d="M16 32 L26 28 L36 32 L26 36 Z"/>
    <path d="M16 32 L16 40 L26 44 L26 36 Z"/>
    <path d="M36 32 L36 40 L26 44 L26 36 Z"/>
  </g>
</svg>
